<svg id="visual" viewBox="0 0 900 600" width="900" height="600" xmlns="http://www.w3.org/2000/svg" xmlns:xlink="http://www.w3.org/1999/xlink" version="1.1">
    <rect x="0" y="0" width="900" height="600" fill="#1B1F25"></rect>
    <path d="M0 286L21.5 280.3C43 274.7 86 263.3 128.8 267C171.7 270.7 214.3 289.3 257.2 307.7C300 326 343 344 385.8 357.3C428.7 370.7 471.3 379.3 514.2 369.7C557 360 600 332 642.8 337.7C685.7 343.3 728.3 382.7 771.2 383.7C814 384.7 857 347.3 878.5 328.7L900 310L900 601L878.5 601C857 601 814 601 771.2 601C728.3 601 685.7 601 642.8 601C600 601 557 601 514.2 601C471.3 601 428.7 601 385.8 601C343 601 300 601 257.2 601C214.3 601 171.7 601 128.8 601C86 601 43 601 21.5 601L0 601Z" fill="#fff" stroke-linecap="round" stroke-linejoin="miter"></path>
    <path d="M0 286L21.5 280.3C43 274.7 86 263.3 128.8 267C171.7 270.7 214.3 289.3 257.2 307.7C300 326 343 344 385.8 357.3C428.7 370.7 471.3 379.3 514.2 369.7C557 360 600 332 642.8 337.7C685.7 343.3 728.3 382.7 771.2 383.7C814 384.7 857 347.3 878.5 328.7L900 310L900 601L878.5 601C857 601 814 601 771.2 601C728.3 601 685.7 601 642.8 601C600 601 557 601 514.2 601C471.3 601 428.7 601 385.8 601C343 601 300 601 257.2 601C214.3 601 171.7 601 128.8 601C86 601 43 601 21.5 601L0 601Z" fill="#0660E4" stroke-linecap="round" stroke-linejoin="miter"></path>
</svg>